<svg width="391" height="560" viewBox="0 0 391 560" fill="none" xmlns="http://www.w3.org/2000/svg">
<g clip-path="url(#clip0_62_128)">
<path d="M314.492 35.7533H314.576C271.769 36.8137 233.856 25.8034 198.655 2.10079L195.529 0L192.403 2.10079C157.218 25.8074 119.29 36.8137 76.4829 35.7533L70.7607 35.6058V173.612C70.7607 187.931 74.3167 201.883 81.0304 213.954C86.207 223.222 93.3666 232.526 102.426 241.746C80.8153 202.565 81.9223 173.612 81.9223 173.612V47.0107H82.1214C123.654 47.0107 160.858 36.0044 195.513 13.4578C230.169 36.0044 267.353 47.0107 308.905 47.0107H309.088V173.628C309.088 186.042 306.03 198.112 300.224 208.524C293.479 220.643 282.895 232.873 268.563 245.123C260.281 223.505 252.46 206.356 252.46 206.356L264.398 210.693C245.766 196.227 239.813 180.947 239.813 180.947C242.425 182.621 252.213 183.1 252.213 183.1C250.294 182.386 247.817 180.337 245.153 177.67C233.912 166.413 227.429 151.253 226.685 135.344V134.813C226.008 120.809 227.592 106.821 231.132 93.2639C232.439 88.2492 233.43 82.9354 233.382 78.5305C233.267 68.1501 226.82 67.4246 226.82 67.4246C228.011 73.6313 223.364 93.9257 214.054 90.6968C205.174 87.6193 205.472 65.1564 205.472 65.1564L208.977 63.9326C209.407 63.7851 209.423 63.1553 208.992 62.9878L206.066 61.8119C203.322 45.8228 189.07 42.7254 184.901 41.8643C184.224 41.7168 183.547 42.1633 183.396 42.841L174.667 81.7913C174.385 83.051 173.692 84.1751 172.684 84.9844C149.139 103.887 148.776 128.041 146.678 137.855C144.528 147.885 121.878 168.661 121.878 168.661C129.997 178.46 144.647 177.614 144.647 177.614C144.416 190.989 136.297 203.884 136.297 203.884L146.069 195.294C144.647 214.627 130.328 229.193 130.328 229.193L143.918 223.218C142.33 229.377 131.964 242.253 126.609 248.627L119.15 257.002C120.241 257.895 121.332 258.772 122.455 259.669C127.648 263.775 133.27 267.897 139.303 272.019C154.467 282.395 172.246 292.791 192.356 303.056V284.041C179.681 283.144 169.152 276.794 163.82 266.677C160.631 260.634 158.95 253.665 158.95 246.53V234.256C158.95 232.522 160.352 231.119 162.084 231.119C163.816 231.119 165.218 232.522 165.218 234.256V246.53C165.218 252.645 166.652 258.605 169.367 263.751C174.03 272.597 183.798 277.878 195.489 277.878C207.181 277.878 216.956 272.597 221.619 263.751C224.331 258.605 225.769 252.645 225.769 246.53V234.256C225.769 232.522 227.17 231.119 228.903 231.119C230.635 231.119 232.036 232.522 232.036 234.256V246.53C232.036 253.665 230.352 260.634 227.166 266.677C221.834 276.794 211.306 283.144 198.627 284.041V303.032C226.72 288.701 250.218 274.095 268.484 259.653C269.905 258.529 271.311 257.385 272.685 256.245C289.549 242.308 302.064 228.105 309.952 213.95C316.666 201.883 320.222 187.943 320.222 173.608V35.6058L314.5 35.7533H314.492ZM166.066 114.001C165.174 114.164 164.314 113.57 164.115 112.677C163.586 110.078 163.024 104.749 166.695 102.596V102.58C171.374 99.8135 174.186 97.5811 175.492 96.453C175.838 96.1381 176.384 96.4052 176.4 96.8676C176.583 110.473 169.355 113.387 166.066 114.001ZM217.864 219.427H206.954C205.377 219.427 204.091 220.719 204.091 222.293V222.488C204.091 224.067 205.381 225.355 206.954 225.355H217.864V229.744H206.954C205.377 229.744 204.091 231.035 204.091 232.61V232.805C204.091 234.384 205.381 235.671 206.954 235.671H217.864V240.06H206.954C205.377 240.06 204.091 241.352 204.091 242.926V243.122C204.091 244.7 205.381 245.988 206.954 245.988H217.864V246.685C217.864 259.007 207.794 269.089 195.485 269.089C183.177 269.089 173.107 259.007 173.107 246.685V245.988H184.017C185.594 245.988 186.88 244.696 186.88 243.122V242.926C186.88 241.348 185.59 240.06 184.017 240.06H173.107V235.671H184.017C185.594 235.671 186.88 234.38 186.88 232.805V232.61C186.88 231.031 185.59 229.744 184.017 229.744H173.107V225.355H184.017C185.594 225.355 186.88 224.063 186.88 222.488V222.293C186.88 220.715 185.59 219.427 184.017 219.427H173.107V215.038H184.017C185.594 215.038 186.88 213.746 186.88 212.172V211.977C186.88 210.398 185.59 209.11 184.017 209.11H173.122C173.497 197.112 183.408 187.409 195.481 187.409C207.555 187.409 217.466 197.112 217.84 209.11H206.946C205.369 209.11 204.083 210.402 204.083 211.977V212.172C204.083 213.75 205.373 215.038 206.946 215.038H217.856V219.427H217.864Z" fill="#FFCE09"/>
</g>
<rect y="405.777" width="390.971" height="40.3549" fill="#FFCE09"/>
<path d="M369.166 459.278H389.261V465.977H376.534V478.369H386.649V485.068H376.534V499.47H389.261V506.169H369.166V459.278Z" fill="white"/>
<path d="M352.932 506.839C349.359 506.839 346.635 505.834 344.759 503.824C342.884 501.77 341.946 498.845 341.946 495.049V459.278H349.315V495.585C349.315 497.193 349.627 498.354 350.252 499.068C350.922 499.783 351.86 500.14 353.066 500.14C354.272 500.14 355.187 499.783 355.812 499.068C356.482 498.354 356.817 497.193 356.817 495.585V459.278H363.918V495.049C363.918 498.845 362.98 501.77 361.104 503.824C359.229 505.834 356.504 506.839 352.932 506.839Z" fill="white"/>
<path d="M337.097 510.523C333.748 510.523 331.693 509.027 330.934 506.035C329.55 506.571 327.92 506.839 326.044 506.839C322.427 506.839 319.658 505.811 317.738 503.757C315.818 501.703 314.857 498.8 314.857 495.049V470.398C314.857 466.647 315.818 463.744 317.738 461.69C319.658 459.636 322.427 458.608 326.044 458.608C329.661 458.608 332.43 459.636 334.35 461.69C336.271 463.744 337.231 466.647 337.231 470.398V495.049C337.231 498.175 336.539 500.743 335.154 502.752C335.422 503.199 335.757 503.489 336.159 503.623C336.561 503.757 337.142 503.824 337.901 503.824H339.04V510.523H337.097ZM326.044 500.14C328.59 500.14 329.862 498.599 329.862 495.518V469.929C329.862 466.848 328.59 465.307 326.044 465.307C323.499 465.307 322.226 466.848 322.226 469.929V495.518C322.226 498.599 323.499 500.14 326.044 500.14Z" fill="white"/>
<path d="M302.506 459.278H309.875V506.169H302.506V459.278Z" fill="white"/>
<path d="M275.293 459.278H286.547C290.209 459.278 292.955 460.261 294.786 462.226C296.617 464.191 297.532 467.071 297.532 470.867V494.58C297.532 498.376 296.617 501.256 294.786 503.221C292.955 505.186 290.209 506.169 286.547 506.169H275.293V459.278ZM286.413 499.47C287.618 499.47 288.534 499.113 289.159 498.398C289.829 497.684 290.164 496.523 290.164 494.915V470.532C290.164 468.924 289.829 467.763 289.159 467.049C288.534 466.334 287.618 465.977 286.413 465.977H282.661V499.47H286.413Z" fill="white"/>
<path d="M248.08 459.278H259.334C262.995 459.278 265.742 460.261 267.573 462.226C269.404 464.191 270.319 467.071 270.319 470.867V494.58C270.319 498.376 269.404 501.256 267.573 503.221C265.742 505.186 262.995 506.169 259.334 506.169H248.08V459.278ZM259.2 499.47C260.405 499.47 261.321 499.113 261.946 498.398C262.616 497.684 262.951 496.523 262.951 494.915V470.532C262.951 468.924 262.616 467.763 261.946 467.049C261.321 466.334 260.405 465.977 259.2 465.977H255.448V499.47H259.2Z" fill="white"/>
<path d="M235.193 459.278H242.561V506.169H235.193V459.278Z" fill="white"/>
<path d="M219.848 506.839C216.276 506.839 213.574 505.834 211.743 503.824C209.912 501.77 208.996 498.845 208.996 495.049V492.37H215.963V495.585C215.963 498.622 217.236 500.14 219.781 500.14C221.032 500.14 221.969 499.783 222.595 499.068C223.264 498.309 223.599 497.103 223.599 495.451C223.599 493.486 223.153 491.767 222.26 490.293C221.367 488.775 219.714 486.966 217.303 484.867C214.266 482.188 212.145 479.776 210.939 477.633C209.733 475.444 209.13 472.988 209.13 470.264C209.13 466.557 210.068 463.699 211.944 461.69C213.819 459.636 216.543 458.608 220.116 458.608C223.644 458.608 226.301 459.636 228.087 461.69C229.918 463.699 230.834 466.602 230.834 470.398V472.341H223.867V469.929C223.867 468.321 223.555 467.16 222.93 466.446C222.304 465.687 221.389 465.307 220.183 465.307C217.727 465.307 216.499 466.803 216.499 469.795C216.499 471.492 216.945 473.077 217.839 474.551C218.776 476.025 220.451 477.811 222.863 479.91C225.944 482.59 228.065 485.023 229.226 487.212C230.387 489.4 230.968 491.968 230.968 494.915C230.968 498.756 230.008 501.703 228.087 503.757C226.212 505.811 223.465 506.839 219.848 506.839Z" fill="white"/>
<path d="M170.954 459.278H180.198L187.366 487.346H187.5V459.278H194.064V506.169H186.495L177.653 471.939H177.519V506.169H170.954V459.278Z" fill="white"/>
<path d="M154.784 506.839C151.167 506.839 148.398 505.811 146.478 503.757C144.557 501.703 143.597 498.8 143.597 495.049V470.398C143.597 466.647 144.557 463.744 146.478 461.69C148.398 459.636 151.167 458.608 154.784 458.608C158.401 458.608 161.17 459.636 163.09 461.69C165.01 463.744 165.971 466.647 165.971 470.398V495.049C165.971 498.8 165.01 501.703 163.09 503.757C161.17 505.811 158.401 506.839 154.784 506.839ZM154.784 500.14C157.329 500.14 158.602 498.599 158.602 495.518V469.929C158.602 466.848 157.329 465.307 154.784 465.307C152.238 465.307 150.966 466.848 150.966 469.929V495.518C150.966 498.599 152.238 500.14 154.784 500.14Z" fill="white"/>
<path d="M117.116 459.278H128.035C131.831 459.278 134.599 460.171 136.341 461.958C138.083 463.699 138.954 466.401 138.954 470.063V472.944C138.954 477.811 137.346 480.893 134.131 482.188V482.322C135.917 482.858 137.167 483.952 137.882 485.604C138.641 487.256 139.021 489.467 139.021 492.236V500.475C139.021 501.815 139.065 502.909 139.154 503.757C139.244 504.561 139.467 505.365 139.824 506.169H132.322C132.054 505.41 131.875 504.695 131.786 504.025C131.697 503.355 131.652 502.15 131.652 500.408V491.834C131.652 489.69 131.295 488.194 130.58 487.346C129.91 486.497 128.727 486.073 127.03 486.073H124.484V506.169H117.116V459.278ZM127.164 479.374C128.638 479.374 129.732 478.995 130.446 478.235C131.205 477.476 131.585 476.204 131.585 474.417V470.8C131.585 469.103 131.272 467.875 130.647 467.116C130.067 466.357 129.129 465.977 127.834 465.977H124.484V479.374H127.164Z" fill="white"/>
<path d="M95.9238 459.278H105.905L113.541 506.169H106.173L104.833 496.858V496.992H96.4597L95.12 506.169H88.2874L95.9238 459.278ZM103.962 490.628L100.68 467.451H100.546L97.3305 490.628H103.962Z" fill="white"/>
<path d="M68.7107 459.278H78.6916L86.3281 506.169H78.9596L77.6199 496.858V496.992H69.2466L67.9068 506.169H61.0742L68.7107 459.278ZM76.749 490.628L73.4667 467.451H73.3327L70.1174 490.628H76.749Z" fill="white"/>
<path d="M35.6919 473.308H39.0932V482.12H42.7419V473.308H46.1433V494.953H42.7419V485.212H39.0932V494.953H35.6919V473.308Z" fill="white"/>
<path d="M27.0877 476.4H23.5317V473.308H34.045V476.4H30.489V494.953H27.0877V476.4Z" fill="white"/>
<path d="M18.48 473.308H21.8813V494.953H18.48V473.308Z" fill="white"/>
<path d="M0.463867 473.308H3.74152L5.25667 489.943H5.31851L6.92642 473.308H10.637L12.2449 489.943H12.3067L13.8219 473.308H16.7594L14.564 494.953H10.3278L8.78169 480.358H8.71985L7.17379 494.953H2.65928L0.463867 473.308Z" fill="white"/>
<path d="M356.259 438.436L350.691 420.126H353.639L357.602 434.145H357.799L361.697 420.126H364.71L368.542 434.113H368.739L372.702 420.126H375.65L370.082 438.436H367.331L363.302 424.384H363.04L359.011 438.436H356.259Z" fill="black"/>
<path d="M339.808 438.863C338.65 438.863 337.597 438.645 336.647 438.208C335.697 437.76 334.944 437.116 334.387 436.275C333.83 435.435 333.552 434.419 333.552 433.229C333.552 432.181 333.759 431.335 334.174 430.69C334.589 430.035 335.14 429.522 335.828 429.151C336.527 428.769 337.291 428.485 338.121 428.299C338.962 428.114 339.808 427.966 340.659 427.857C341.773 427.715 342.674 427.606 343.362 427.53C344.061 427.453 344.568 427.322 344.885 427.136C345.212 426.951 345.376 426.634 345.376 426.187V426.088C345.376 424.92 345.054 424.014 344.41 423.37C343.777 422.714 342.81 422.387 341.511 422.387C340.179 422.387 339.131 422.682 338.367 423.271C337.602 423.85 337.067 424.472 336.762 425.138L334.076 424.188C334.556 423.075 335.195 422.207 335.992 421.584C336.8 420.962 337.673 420.525 338.612 420.274C339.562 420.023 340.496 419.897 341.413 419.897C342.002 419.897 342.679 419.968 343.444 420.11C344.208 420.241 344.95 420.525 345.671 420.962C346.403 421.388 347.003 422.037 347.473 422.911C347.953 423.774 348.193 424.931 348.193 426.383V438.437H345.376V435.948H345.245C345.06 436.341 344.743 436.767 344.295 437.225C343.848 437.673 343.253 438.06 342.51 438.388C341.779 438.705 340.878 438.863 339.808 438.863ZM340.234 436.341C341.347 436.341 342.286 436.122 343.051 435.686C343.815 435.249 344.394 434.687 344.787 433.999C345.18 433.3 345.376 432.574 345.376 431.82V429.233C345.256 429.375 344.994 429.506 344.59 429.626C344.197 429.735 343.738 429.833 343.214 429.921C342.701 430.008 342.199 430.084 341.708 430.15C341.216 430.205 340.823 430.248 340.528 430.281C339.797 430.379 339.115 430.538 338.481 430.756C337.848 430.963 337.335 431.275 336.942 431.689C336.56 432.104 336.368 432.672 336.368 433.393C336.368 434.365 336.729 435.102 337.449 435.604C338.181 436.095 339.109 436.341 340.234 436.341Z" fill="black"/>
<path d="M317.166 438.437V414.034H320.114V435.817H331.48V438.437H317.166Z" fill="black"/>
<path d="M295.269 438.764C293.675 438.764 292.294 438.475 291.126 437.896C289.968 437.307 289.073 436.499 288.44 435.473C287.818 434.446 287.506 433.272 287.506 431.951C287.506 430.936 287.73 430.041 288.178 429.265C288.625 428.49 289.231 427.769 289.996 427.103C290.771 426.427 291.644 425.728 292.616 425.007L296.154 422.387C296.82 421.895 297.36 421.404 297.775 420.913C298.201 420.41 298.414 419.744 298.414 418.915C298.414 418.292 298.141 417.692 297.595 417.113C297.06 416.523 296.35 416.229 295.466 416.229C294.855 416.229 294.309 416.387 293.828 416.704C293.359 417.009 292.987 417.402 292.714 417.883C292.452 418.363 292.321 418.86 292.321 419.373C292.321 419.941 292.48 420.52 292.796 421.109C293.113 421.699 293.517 422.299 294.008 422.911C294.5 423.511 295.007 424.134 295.531 424.778L306.734 438.437H303.327L294.09 427.3C293.239 426.263 292.463 425.324 291.765 424.483C291.066 423.631 290.509 422.802 290.094 421.994C289.679 421.175 289.472 420.29 289.472 419.34C289.472 418.238 289.717 417.271 290.209 416.442C290.7 415.612 291.388 414.968 292.272 414.509C293.157 414.039 294.188 413.805 295.368 413.805C296.601 413.805 297.661 414.039 298.545 414.509C299.429 414.978 300.106 415.601 300.576 416.376C301.056 417.151 301.296 417.997 301.296 418.915C301.296 420.072 301.002 421.076 300.412 421.928C299.833 422.78 299.047 423.577 298.054 424.319L293.173 427.955C292.081 428.763 291.344 429.549 290.962 430.314C290.58 431.078 290.389 431.624 290.389 431.951C290.389 432.716 290.585 433.431 290.978 434.097C291.382 434.752 291.945 435.287 292.665 435.702C293.386 436.106 294.232 436.308 295.204 436.308C296.121 436.308 297.016 436.111 297.89 435.718C298.763 435.314 299.549 434.741 300.248 433.999C300.958 433.256 301.52 432.361 301.935 431.313C302.361 430.253 302.574 429.069 302.574 427.759H305.293C305.293 429.375 305.107 430.696 304.736 431.722C304.365 432.748 303.944 433.551 303.475 434.13C303.005 434.708 302.629 435.139 302.345 435.423C302.246 435.543 302.154 435.664 302.066 435.784C301.99 435.904 301.908 436.024 301.821 436.144C301.023 437.028 300.024 437.689 298.823 438.126C297.622 438.552 296.438 438.764 295.269 438.764Z" fill="black"/>
<path d="M264.562 445.282C264.081 445.293 263.655 445.26 263.284 445.184C262.913 445.108 262.651 445.031 262.498 444.955L263.219 442.498L263.497 442.564C264.436 442.782 265.222 442.733 265.856 442.416C266.5 442.11 267.062 441.297 267.542 439.976L268.067 438.535L261.319 420.126H264.365L269.409 434.735H269.606L274.65 420.126H277.697L269.934 441.09C269.584 442.039 269.153 442.826 268.64 443.448C268.127 444.07 267.532 444.529 266.855 444.824C266.178 445.129 265.413 445.282 264.562 445.282Z" fill="black"/>
<path d="M252.86 438.83C251.102 438.83 249.579 438.437 248.291 437.651C247.013 436.865 246.03 435.768 245.343 434.359C244.655 432.94 244.311 431.296 244.311 429.429C244.311 427.551 244.649 425.897 245.326 424.467C246.003 423.037 246.953 421.917 248.176 421.109C249.41 420.301 250.851 419.897 252.5 419.897C253.45 419.897 254.394 420.056 255.333 420.372C256.272 420.689 257.124 421.202 257.888 421.912C258.663 422.622 259.28 423.561 259.739 424.729C260.197 425.897 260.427 427.333 260.427 429.036V430.248H246.309V427.824H258.903L257.61 428.741C257.61 427.519 257.418 426.432 257.036 425.482C256.654 424.532 256.081 423.784 255.317 423.239C254.563 422.693 253.624 422.42 252.5 422.42C251.375 422.42 250.409 422.698 249.601 423.255C248.804 423.801 248.192 424.516 247.766 425.4C247.341 426.285 247.128 427.235 247.128 428.25V429.855C247.128 431.242 247.368 432.416 247.848 433.376C248.329 434.337 249 435.069 249.863 435.571C250.725 436.062 251.724 436.308 252.86 436.308C253.592 436.308 254.258 436.204 254.858 435.997C255.459 435.778 255.977 435.456 256.414 435.031C256.851 434.594 257.184 434.059 257.413 433.426L260.132 434.212C259.848 435.129 259.367 435.937 258.69 436.636C258.024 437.323 257.195 437.864 256.201 438.257C255.207 438.639 254.094 438.83 252.86 438.83Z" fill="black"/>
<path d="M229.563 427.431V438.437H226.779V420.127H229.465V423.009H229.727C230.153 422.07 230.802 421.317 231.676 420.749C232.549 420.181 233.679 419.897 235.066 419.897C236.3 419.897 237.381 420.149 238.309 420.651C239.237 421.153 239.957 421.917 240.471 422.944C240.995 423.959 241.257 425.248 241.257 426.809V438.437H238.473V427.005C238.473 425.575 238.096 424.456 237.342 423.648C236.589 422.829 235.563 422.42 234.263 422.42C233.368 422.42 232.566 422.616 231.856 423.009C231.146 423.402 230.584 423.97 230.169 424.713C229.765 425.455 229.563 426.361 229.563 427.431Z" fill="black"/>
<path d="M215.536 438.437V420.126H218.222V422.911H218.418C218.757 422.004 219.363 421.273 220.236 420.716C221.12 420.148 222.109 419.864 223.2 419.864C223.408 419.864 223.665 419.87 223.97 419.881C224.276 419.881 224.511 419.886 224.674 419.897V422.747C224.576 422.725 224.358 422.692 224.019 422.648C223.681 422.605 223.321 422.583 222.938 422.583C222.054 422.583 221.262 422.769 220.564 423.14C219.865 423.511 219.313 424.019 218.909 424.663C218.516 425.307 218.32 426.044 218.32 426.874V438.437H215.536Z" fill="black"/>
<path d="M204.162 438.83C202.513 438.83 201.067 438.437 199.822 437.651C198.577 436.865 197.605 435.762 196.907 434.343C196.219 432.923 195.875 431.275 195.875 429.397C195.875 427.486 196.219 425.821 196.907 424.401C197.605 422.971 198.577 421.863 199.822 421.077C201.067 420.291 202.513 419.897 204.162 419.897C205.822 419.897 207.274 420.291 208.518 421.077C209.763 421.863 210.735 422.971 211.434 424.401C212.132 425.821 212.482 427.486 212.482 429.397C212.482 431.275 212.132 432.923 211.434 434.343C210.735 435.762 209.763 436.865 208.518 437.651C207.274 438.437 205.822 438.83 204.162 438.83ZM204.162 436.308C205.428 436.308 206.466 435.986 207.274 435.342C208.082 434.698 208.682 433.851 209.075 432.803C209.468 431.744 209.665 430.609 209.665 429.397C209.665 428.163 209.468 427.016 209.075 425.957C208.682 424.898 208.082 424.047 207.274 423.402C206.466 422.747 205.428 422.42 204.162 422.42C202.917 422.42 201.891 422.747 201.083 423.402C200.275 424.047 199.674 424.898 199.281 425.957C198.888 427.016 198.692 428.163 198.692 429.397C198.692 430.609 198.888 431.744 199.281 432.803C199.674 433.851 200.275 434.698 201.083 435.342C201.891 435.986 202.917 436.308 204.162 436.308Z" fill="black"/>
<path d="M193.934 420.127V422.518H184.468V420.127H193.934ZM187.219 415.771H190.003V433.196C190.003 434.146 190.2 434.845 190.593 435.293C190.986 435.73 191.608 435.948 192.46 435.948C192.646 435.948 192.837 435.937 193.033 435.915C193.241 435.893 193.465 435.861 193.705 435.817L194.294 438.339C194.032 438.437 193.71 438.514 193.328 438.568C192.957 438.634 192.58 438.667 192.198 438.667C190.724 438.667 189.523 438.23 188.595 437.356C187.678 436.483 187.219 435.347 187.219 433.95V415.771Z" fill="black"/>
<path d="M182.986 420.127V422.518H173.52V420.127H182.986ZM176.271 415.771H179.055V433.196C179.055 434.146 179.252 434.845 179.645 435.293C180.038 435.73 180.66 435.948 181.512 435.948C181.698 435.948 181.889 435.937 182.085 435.915C182.293 435.893 182.517 435.861 182.757 435.817L183.346 438.339C183.084 438.437 182.762 438.514 182.38 438.568C182.009 438.634 181.632 438.667 181.25 438.667C179.776 438.667 178.575 438.23 177.647 437.356C176.73 436.483 176.271 435.347 176.271 433.95V415.771Z" fill="black"/>
<path d="M156.151 438.437H153.039L162.014 414.034H165.061L174.003 438.437H170.924L163.619 417.899H163.423L156.151 438.437ZM157.298 428.905H169.777V431.526H157.298V428.905Z" fill="black"/>
<path d="M143.557 420.127V422.518H134.091V420.127H143.557ZM136.843 415.771H139.627V433.196C139.627 434.146 139.823 434.845 140.216 435.293C140.609 435.73 141.232 435.948 142.083 435.948C142.269 435.948 142.46 435.937 142.657 435.915C142.864 435.893 143.088 435.861 143.328 435.817L143.918 438.339C143.656 438.437 143.334 438.514 142.951 438.568C142.58 438.634 142.204 438.667 141.821 438.667C140.347 438.667 139.146 438.23 138.218 437.356C137.301 436.483 136.843 435.347 136.843 433.95V415.771Z" fill="black"/>
<path d="M119.998 427.431V438.437H117.214V420.127H119.9V423.009H120.162C120.588 422.07 121.237 421.317 122.111 420.749C122.984 420.181 124.114 419.897 125.501 419.897C126.735 419.897 127.816 420.149 128.744 420.651C129.672 421.153 130.393 421.917 130.906 422.944C131.43 423.959 131.692 425.248 131.692 426.809V438.437H128.908V427.005C128.908 425.575 128.531 424.456 127.778 423.648C127.024 422.829 125.998 422.42 124.699 422.42C123.803 422.42 123.001 422.616 122.291 423.009C121.581 423.402 121.019 423.97 120.604 424.713C120.2 425.455 119.998 426.361 119.998 427.431Z" fill="black"/>
<path d="M106.659 438.83C104.901 438.83 103.378 438.437 102.089 437.651C100.812 436.865 99.8293 435.768 99.1414 434.359C98.4536 432.94 98.1096 431.296 98.1096 429.429C98.1096 427.551 98.4481 425.897 99.125 424.467C99.802 423.037 100.752 421.917 101.975 421.109C103.209 420.301 104.65 419.897 106.299 419.897C107.248 419.897 108.193 420.056 109.132 420.372C110.071 420.689 110.923 421.202 111.687 421.912C112.462 422.622 113.079 423.561 113.538 424.729C113.996 425.897 114.225 427.333 114.225 429.036V430.248H100.108V427.824H112.702L111.408 428.741C111.408 427.519 111.217 426.432 110.835 425.482C110.453 424.532 109.88 423.784 109.116 423.239C108.362 422.693 107.423 422.42 106.299 422.42C105.174 422.42 104.208 422.698 103.4 423.255C102.603 423.801 101.991 424.516 101.565 425.4C101.14 426.285 100.927 427.235 100.927 428.25V429.855C100.927 431.242 101.167 432.416 101.647 433.376C102.128 434.337 102.799 435.069 103.662 435.571C104.524 436.062 105.523 436.308 106.659 436.308C107.39 436.308 108.056 436.204 108.657 435.997C109.257 435.778 109.776 435.456 110.213 435.031C110.65 434.594 110.983 434.059 111.212 433.426L113.931 434.212C113.647 435.129 113.166 435.937 112.489 436.636C111.823 437.323 110.993 437.864 110 438.257C109.006 438.639 107.893 438.83 106.659 438.83Z" fill="black"/>
<path d="M86.7028 438.83C85.1742 438.83 83.8257 438.443 82.6575 437.667C81.4892 436.892 80.5775 435.795 79.9224 434.375C79.2673 432.945 78.9397 431.264 78.9397 429.331C78.9397 427.409 79.2673 425.744 79.9224 424.336C80.5884 422.916 81.5056 421.825 82.6738 421.06C83.8421 420.285 85.196 419.897 86.7355 419.897C87.9366 419.897 88.881 420.094 89.5689 420.487C90.2677 420.88 90.8027 421.328 91.1739 421.83C91.5451 422.321 91.8345 422.725 92.0419 423.042H92.2712V414.034H95.0555V438.437H92.3695V435.62H92.0419C91.8345 435.948 91.5397 436.368 91.1575 436.881C90.7754 437.383 90.2295 437.837 89.5198 438.241C88.821 438.634 87.882 438.83 86.7028 438.83ZM87.0631 436.308C88.1986 436.308 89.154 436.013 89.9292 435.424C90.7044 434.823 91.294 433.999 91.698 432.951C92.102 431.891 92.304 430.674 92.304 429.298C92.304 427.923 92.1074 426.722 91.7144 425.695C91.3213 424.658 90.7317 423.855 89.9456 423.288C89.1704 422.709 88.2095 422.42 87.0631 422.42C85.8839 422.42 84.9012 422.725 84.1151 423.337C83.329 423.948 82.7393 424.773 82.3463 425.81C81.9532 426.847 81.7567 428.01 81.7567 429.298C81.7567 430.598 81.9532 431.777 82.3463 432.836C82.7503 433.895 83.3453 434.741 84.1315 435.374C84.9176 435.997 85.8948 436.308 87.0631 436.308Z" fill="black"/>
<path d="M73.1013 438.437V420.126H75.8855V438.437H73.1013ZM74.5098 417.08C73.9639 417.08 73.4944 416.894 73.1013 416.523C72.7083 416.152 72.5117 415.704 72.5117 415.18C72.5117 414.656 72.7083 414.208 73.1013 413.837C73.4944 413.466 73.9639 413.28 74.5098 413.28C75.0557 413.28 75.5252 413.466 75.9183 413.837C76.3114 414.208 76.5079 414.656 76.5079 415.18C76.5079 415.704 76.3114 416.152 75.9183 416.523C75.5252 416.894 75.0557 417.08 74.5098 417.08Z" fill="black"/>
<path d="M62.9066 438.83C61.2033 438.83 59.7293 438.426 58.4845 437.618C57.2507 436.799 56.2954 435.68 55.6184 434.261C54.9524 432.841 54.6194 431.22 54.6194 429.397C54.6194 427.53 54.9633 425.886 55.6512 424.467C56.3391 423.037 57.2999 421.917 58.5337 421.109C59.7784 420.301 61.2251 419.897 62.8738 419.897C64.1622 419.897 65.3195 420.138 66.3459 420.618C67.3831 421.088 68.2293 421.754 68.8844 422.616C69.5505 423.479 69.9599 424.483 70.1128 425.63H67.2958C67.1539 425.073 66.8973 424.549 66.526 424.057C66.1548 423.566 65.6635 423.173 65.052 422.878C64.4515 422.573 63.7364 422.42 62.9066 422.42C61.8147 422.42 60.8593 422.704 60.0404 423.271C59.2215 423.839 58.5828 424.642 58.1242 425.679C57.6657 426.705 57.4364 427.912 57.4364 429.298C57.4364 430.707 57.6602 431.941 58.1079 433C58.5555 434.048 59.1888 434.861 60.0077 435.44C60.8375 436.019 61.8038 436.308 62.9066 436.308C64.0093 436.308 64.9538 436.024 65.7399 435.456C66.526 434.878 67.0447 434.092 67.2958 433.098H70.1128C69.9599 434.179 69.5669 435.151 68.9336 436.013C68.3112 436.876 67.4869 437.564 66.4605 438.077C65.4451 438.579 64.2604 438.83 62.9066 438.83Z" fill="black"/>
<path d="M45.3089 438.83C43.6056 438.83 42.1316 438.426 40.8869 437.618C39.6531 436.799 38.6977 435.68 38.0208 434.261C37.3547 432.841 37.0217 431.22 37.0217 429.397C37.0217 427.53 37.3657 425.886 38.0535 424.467C38.7414 423.037 39.7022 421.917 40.936 421.109C42.1807 420.301 43.6274 419.897 45.2761 419.897C46.5645 419.897 47.7219 420.138 48.7482 420.618C49.7855 421.088 50.6317 421.754 51.2868 422.616C51.9528 423.479 52.3623 424.483 52.5151 425.63H49.6981C49.5562 425.073 49.2996 424.549 48.9284 424.057C48.5572 423.566 48.0658 423.173 47.4544 422.878C46.8539 422.573 46.1387 422.42 45.3089 422.42C44.217 422.42 43.2617 422.704 42.4428 423.271C41.6239 423.839 40.9852 424.642 40.5266 425.679C40.068 426.705 39.8387 427.912 39.8387 429.298C39.8387 430.707 40.0625 431.941 40.5102 433C40.9579 434.048 41.5911 434.861 42.41 435.44C43.2398 436.019 44.2061 436.308 45.3089 436.308C46.4117 436.308 47.3561 436.024 48.1423 435.456C48.9284 434.878 49.447 434.092 49.6981 433.098H52.5151C52.3623 434.179 51.9692 435.151 51.3359 436.013C50.7136 436.876 49.8892 437.564 48.8629 438.077C47.8475 438.579 46.6628 438.83 45.3089 438.83Z" fill="black"/>
<path d="M17.852 438.437H14.7402L23.7153 414.034H26.7615L35.7038 438.437H32.6248L25.3203 417.899H25.1238L17.852 438.437ZM18.9985 428.905H31.4783V431.526H18.9985V428.905Z" fill="black"/>
<path d="M352.113 323.233H363.393V352.46H375.494V323.233H386.774V395.018H375.494V362.715H363.393V395.018H352.113V323.233Z" fill="white"/>
<path d="M323.577 333.488H311.784V323.233H346.651V333.488H334.858V395.018H323.577V333.488Z" fill="white"/>
<path d="M273.598 323.233H290.313C296.124 323.233 300.363 324.601 303.029 327.335C305.696 330.002 307.029 334.138 307.029 339.744V344.154C307.029 351.605 304.568 356.323 299.645 358.305V358.511C302.38 359.331 304.294 361.006 305.388 363.535C306.55 366.065 307.131 369.449 307.131 373.688V386.301C307.131 388.352 307.2 390.027 307.337 391.326C307.473 392.557 307.815 393.788 308.362 395.018H296.876C296.466 393.856 296.193 392.762 296.056 391.737C295.919 390.711 295.851 388.865 295.851 386.199V373.073C295.851 369.791 295.304 367.501 294.21 366.202C293.185 364.903 291.373 364.253 288.775 364.253H284.878V395.018H273.598V323.233ZM288.98 353.998C291.236 353.998 292.911 353.417 294.005 352.255C295.167 351.093 295.748 349.144 295.748 346.41V340.872C295.748 338.274 295.27 336.394 294.313 335.232C293.424 334.069 291.988 333.488 290.006 333.488H284.878V353.998H288.98Z" fill="white"/>
<path d="M248.843 396.044C243.306 396.044 239.067 394.471 236.127 391.327C233.187 388.182 231.718 383.738 231.718 377.995V340.257C231.718 334.514 233.187 330.07 236.127 326.925C239.067 323.78 243.306 322.208 248.843 322.208C254.381 322.208 258.62 323.78 261.559 326.925C264.499 330.07 265.969 334.514 265.969 340.257V377.995C265.969 383.738 264.499 388.182 261.559 391.327C258.62 394.471 254.381 396.044 248.843 396.044ZM248.843 385.789C252.74 385.789 254.689 383.43 254.689 378.713V339.539C254.689 334.822 252.74 332.463 248.843 332.463C244.946 332.463 242.998 334.822 242.998 339.539V378.713C242.998 383.43 244.946 385.789 248.843 385.789Z" fill="white"/>
<path d="M172.788 323.233H183.658L188.683 378.405H188.888L194.221 323.233H206.527L211.86 378.405H212.065L217.09 323.233H226.832L219.551 395.018H205.501L200.374 346.615H200.169L195.041 395.018H180.069L172.788 323.233Z" fill="white"/>
<path d="M130.495 333.488H118.702V323.233H153.569V333.488H141.776V395.018H130.495V333.488Z" fill="white"/>
<path d="M80.5161 323.233H97.2317C103.043 323.233 107.282 324.601 109.948 327.335C112.614 330.002 113.947 334.138 113.947 339.744V344.154C113.947 351.605 111.486 356.323 106.564 358.305V358.511C109.298 359.331 111.213 361.006 112.307 363.535C113.469 366.065 114.05 369.449 114.05 373.688V386.301C114.05 388.352 114.118 390.027 114.255 391.326C114.392 392.557 114.734 393.788 115.28 395.018H103.795C103.385 393.856 103.111 392.762 102.975 391.737C102.838 390.711 102.769 388.865 102.769 386.199V373.073C102.769 369.791 102.222 367.501 101.129 366.202C100.103 364.903 98.2914 364.253 95.6935 364.253H91.7966V395.018H80.5161V323.233ZM95.8986 353.998C98.1547 353.998 99.8296 353.417 100.924 352.255C102.086 351.093 102.667 349.144 102.667 346.41V340.872C102.667 338.274 102.188 336.394 101.231 335.232C100.342 334.069 98.9067 333.488 96.9241 333.488H91.7966V353.998H95.8986Z" fill="white"/>
<path d="M55.7616 396.044C50.2239 396.044 45.9851 394.471 43.0454 391.327C40.1056 388.182 38.6357 383.738 38.6357 377.995V340.257C38.6357 334.514 40.1056 330.07 43.0454 326.925C45.9851 323.78 50.2239 322.208 55.7616 322.208C61.2992 322.208 65.538 323.78 68.4777 326.925C71.4175 330.07 72.8874 334.514 72.8874 340.257V377.995C72.8874 383.738 71.4175 388.182 68.4777 391.327C65.538 394.471 61.2992 396.044 55.7616 396.044ZM55.7616 385.789C59.6584 385.789 61.6069 383.43 61.6069 378.713V339.539C61.6069 334.822 59.6584 332.463 55.7616 332.463C51.8647 332.463 49.9162 334.822 49.9162 339.539V378.713C49.9162 383.43 51.8647 385.789 55.7616 385.789Z" fill="white"/>
<path d="M4.20459 323.233H34.0466V333.488H15.4851V353.486H30.0471V363.741H15.4851V395.018H4.20459V323.233Z" fill="white"/>
<path d="M283.552 560H109.151V519.973H283.552V560ZM235.974 531.889C234.76 531.889 233.677 532.101 232.724 532.525C231.778 532.942 231.03 533.53 230.479 534.289C229.936 535.041 229.663 535.921 229.663 536.926C229.663 538.154 230.071 539.136 230.882 539.873C231.693 540.603 232.799 541.136 234.198 541.471L236.019 541.916C236.621 542.057 237.131 542.218 237.548 542.396C237.972 542.575 238.293 542.792 238.509 543.045C238.732 543.298 238.845 543.61 238.845 543.982C238.845 544.392 238.721 544.754 238.476 545.066C238.237 545.372 237.895 545.61 237.448 545.781C237.009 545.952 236.491 546.037 235.896 546.037C235.278 546.037 234.729 545.944 234.253 545.758C233.777 545.572 233.397 545.294 233.114 544.922C232.831 544.542 232.669 544.076 232.624 543.525H229.228C229.257 544.724 229.548 545.73 230.099 546.541C230.657 547.353 231.433 547.962 232.423 548.371C233.42 548.781 234.589 548.986 235.929 548.986C237.291 548.986 238.453 548.785 239.413 548.383C240.374 547.973 241.108 547.397 241.614 546.652C242.128 545.9 242.384 545.014 242.384 543.994C242.384 543.302 242.262 542.691 242.017 542.162C241.771 541.626 241.42 541.162 240.966 540.768C240.519 540.373 239.99 540.041 239.38 539.773C238.77 539.498 238.104 539.277 237.382 539.113L235.896 538.746C235.419 538.634 234.979 538.496 234.577 538.332C234.183 538.161 233.866 537.944 233.628 537.684C233.39 537.416 233.271 537.088 233.271 536.701C233.271 536.337 233.375 536.013 233.583 535.73C233.791 535.448 234.095 535.227 234.489 535.07C234.891 534.907 235.375 534.826 235.94 534.826C236.782 534.826 237.447 535.008 237.938 535.373C238.437 535.738 238.717 536.243 238.776 536.891H242.161C242.146 535.908 241.878 535.041 241.356 534.289C240.843 533.537 240.125 532.95 239.202 532.525C238.286 532.101 237.21 531.889 235.974 531.889ZM158.425 531.889C156.951 531.889 155.626 532.223 154.45 532.893C153.274 533.555 152.342 534.528 151.657 535.809C150.972 537.082 150.63 538.627 150.63 540.443C150.63 542.245 150.972 543.782 151.657 545.055C152.342 546.328 153.274 547.301 154.45 547.971C155.626 548.64 156.951 548.975 158.425 548.975C159.899 548.975 161.225 548.643 162.401 547.98C163.577 547.31 164.505 546.339 165.183 545.066C165.867 543.793 166.21 542.252 166.21 540.443C166.21 538.627 165.867 537.082 165.183 535.809C164.505 534.528 163.578 533.555 162.401 532.893C161.225 532.222 159.899 531.889 158.425 531.889ZM198.255 531.889C196.796 531.889 195.478 532.223 194.302 532.893C193.133 533.555 192.205 534.528 191.521 535.809C190.843 537.082 190.505 538.627 190.505 540.443C190.505 542.245 190.843 543.782 191.521 545.055C192.198 546.328 193.121 547.301 194.29 547.971C195.459 548.641 196.781 548.975 198.255 548.975C199.32 548.975 200.277 548.814 201.126 548.494C201.974 548.167 202.708 547.728 203.325 547.178C203.943 546.62 204.431 545.986 204.788 545.279C205.153 544.572 205.38 543.833 205.47 543.066H201.919C201.845 543.513 201.699 543.912 201.483 544.262C201.275 544.604 201.013 544.895 200.7 545.133C200.388 545.371 200.03 545.553 199.628 545.68C199.226 545.806 198.79 545.871 198.321 545.871C197.48 545.871 196.739 545.665 196.099 545.256C195.459 544.846 194.96 544.239 194.603 543.436C194.245 542.624 194.067 541.627 194.067 540.443C194.067 539.282 194.241 538.298 194.591 537.494C194.948 536.683 195.449 536.065 196.089 535.641C196.737 535.209 197.484 534.992 198.333 534.992C198.817 534.992 199.259 535.064 199.661 535.205C200.07 535.339 200.433 535.532 200.745 535.785C201.065 536.038 201.323 536.348 201.517 536.713C201.717 537.078 201.852 537.487 201.919 537.941H205.47C205.358 536.981 205.1 536.127 204.698 535.383C204.296 534.631 203.776 533.998 203.136 533.484C202.503 532.963 201.773 532.569 200.946 532.301C200.12 532.025 199.223 531.889 198.255 531.889ZM133.429 532.111V548.752H136.937V543.357H139.896C141.176 543.357 142.266 543.123 143.167 542.654C144.075 542.178 144.769 541.519 145.245 540.678C145.722 539.836 145.96 538.864 145.96 537.762C145.96 536.653 145.721 535.675 145.245 534.826C144.776 533.977 144.094 533.314 143.2 532.838C142.314 532.354 141.243 532.111 139.985 532.111H133.429ZM171.493 548.752H177.392C179.081 548.752 180.534 548.42 181.747 547.758C182.96 547.088 183.89 546.13 184.538 544.887C185.193 543.643 185.521 542.154 185.521 540.42C185.52 538.693 185.197 537.21 184.55 535.975C183.902 534.732 182.974 533.78 181.769 533.117C180.562 532.447 179.121 532.111 177.446 532.111H171.493V548.752ZM209.481 548.752H213.245L214.479 544.955H220.497L221.731 548.752H225.485L219.755 532.111H215.222L209.481 548.752ZM246.786 535.016H251.892V548.752H255.364V535.016H260.456V532.111H246.786V535.016ZM158.425 534.992C159.281 534.992 160.026 535.2 160.659 535.617C161.292 536.034 161.78 536.649 162.122 537.461C162.472 538.272 162.647 539.267 162.647 540.443C162.647 541.612 162.472 542.603 162.122 543.414C161.78 544.218 161.292 544.827 160.659 545.244C160.026 545.661 159.281 545.871 158.425 545.871C157.576 545.871 156.835 545.661 156.202 545.244C155.57 544.827 155.075 544.218 154.718 543.414C154.368 542.603 154.192 541.612 154.192 540.443C154.192 539.267 154.368 538.272 154.718 537.461C155.075 536.649 155.569 536.034 156.202 535.617C156.835 535.2 157.576 534.992 158.425 534.992ZM177.245 535.127C178.287 535.127 179.163 535.313 179.87 535.686C180.584 536.05 181.12 536.623 181.478 537.404C181.842 538.186 182.026 539.192 182.026 540.42C182.026 541.656 181.842 542.67 181.478 543.459C181.12 544.24 180.585 544.817 179.87 545.189C179.163 545.554 178.283 545.736 177.233 545.736H175.001V535.127H177.245ZM219.604 542.207H215.372L217.421 535.908H217.556L219.604 542.207ZM139.313 534.992C139.991 534.992 140.554 535.109 141.001 535.34C141.447 535.571 141.779 535.894 141.995 536.311C142.218 536.72 142.329 537.204 142.329 537.762C142.329 538.305 142.218 538.786 141.995 539.203C141.779 539.62 141.448 539.947 141.001 540.186C140.562 540.424 140.003 540.543 139.325 540.543H136.937V534.992H139.313Z" fill="#FFCE09"/>
<defs>
<clipPath id="clip0_62_128">
<rect width="124.725" height="151.528" fill="white" transform="matrix(2 0 0 2 70.7607 0)"/>
</clipPath>
</defs>
</svg>
